<svg width="1447" height="149" viewBox="0 0 1447 149" fill="none" xmlns="http://www.w3.org/2000/svg">
<path d="M3.5 102.979C1.56731 102.835 0 102.009 0 101.139V47.8609C0 46.9869 1.56731 46.1647 3.5 46.0211C5.43269 45.8774 7 46.484 7 47.374V101.626C7 102.516 5.43269 103.123 3.5 102.979Z" fill="#C78200"/>
<path d="M22.9945 126.946C20.7839 126.706 19 125.756 19 124.822V24.178C19 23.2481 20.7948 22.2938 22.9945 22.0542C25.2052 21.8147 27 22.3913 27 23.3415V125.659C27 126.609 25.2052 127.185 22.9945 126.946Z" fill="#C78200"/>
<path d="M42.5 90C40.5683 89.9352 39 89.0923 39 88.1238V60.8801C39 59.9116 40.5683 59.0687 42.5 59.0039C44.4317 58.9391 46.0095 59.6887 46 60.6735V88.3264C46 89.3152 44.4317 90.0608 42.5 89.9959V90Z" fill="#C78200"/>
<path d="M61.5 90.9923C59.564 90.9288 58 90.0746 58 89.0853V59.9108C58 58.9215 59.564 58.0673 61.5 58.0037C63.436 57.9401 65 58.7069 65 59.7121V89.2879C65 90.2931 63.4264 91.0599 61.5 90.9963V90.9923Z" fill="#C78200"/>
<path d="M81 99.9891C78.7935 99.9002 77 98.9826 77 97.9396V51.0563C77 50.0134 78.7935 49.0917 81 49.0068C83.2065 48.9179 85 49.7062 85 50.7653V98.2347C85 99.2938 83.2065 100.082 81 99.9932V99.9891Z" fill="#C78200"/>
<path d="M100.5 104.992C98.565 104.896 97 103.955 97 102.889V46.1107C97 45.0453 98.565 44.1036 100.5 44.0078C102.435 43.912 104 44.7101 104 45.7875V103.213C104 104.29 102.435 105.088 100.5 104.992Z" fill="#C78200"/>
<path d="M119.5 94C117.57 93.9427 116 92.9855 116 91.8605V57.1421C116 56.0172 117.57 55.0599 119.5 55.0026C121.43 54.9454 123 55.8249 123 56.9621V92.0364C123 93.1737 121.43 94.0532 119.5 93.9959V94Z" fill="#C78200"/>
<path d="M139 115.995C136.79 115.886 135 114.871 135 113.732V35.272C135 34.1326 136.79 33.1185 139 33.0094C141.21 32.9003 143 33.7528 143 34.9043V114.096C143 115.251 141.21 116.1 139 115.991V115.995Z" fill="#C78200"/>
<path d="M158.5 116.992C156.566 116.891 155 115.861 155 114.693V34.3065C155 33.139 156.566 32.1089 158.5 32.0079C160.434 31.9069 162 32.7876 162 33.9672V115.033C162 116.212 160.434 117.093 158.5 116.992Z" fill="#C78200"/>
<path d="M178 93.9988C175.796 93.9591 174 92.9711 174 91.7965V57.2035C174 56.0289 175.785 55.0409 178 55.0012C180.204 54.9616 182 55.8861 182 57.0725V91.9275C182 93.1139 180.204 94.0385 178 93.9988Z" fill="#C78200"/>
<path d="M197.495 91.9992C195.56 91.9672 193.991 90.9588 194 89.7503V59.2497C194 58.0412 195.569 57.0328 197.495 57.0008C199.431 56.9688 201 57.9292 201 59.1457V89.8543C201 91.0708 199.431 92.0312 197.495 91.9992Z" fill="#C78200"/>
<path d="M217 96.999C214.791 96.9624 213 95.917 213 94.6641V54.3359C213 53.0871 214.791 52.0417 217 52.001C219.209 51.9644 221 52.9528 221 54.2139V94.7861C221 96.0431 219.209 97.0356 217 96.999Z" fill="#C78200"/>
<path d="M236.5 94.9953C234.572 94.9636 233.009 93.9381 233 92.7026V56.2932C233 55.0578 234.563 54.0283 236.5 54.0006C238.437 53.9729 240 54.9549 240 56.1982V92.8016C240 94.045 238.437 95.0309 236.5 94.9993V94.9953Z" fill="#C78200"/>
<path d="M256 92.9955C253.786 92.9713 252 91.913 252 90.6366V58.3593C252 57.0789 253.786 56.0247 256 56.0004C258.214 55.9762 260 56.9981 260 58.2866V90.7134C260 91.9979 258.214 93.0238 256 92.9996V92.9955Z" fill="#C78200"/>
<path d="M275.5 91C273.563 90.9803 272 89.943 272 88.677V60.3233C272 59.0612 273.572 58.02 275.5 58.0003C277.437 57.9806 279 58.9981 279 60.2642V88.7282C279 89.9982 277.428 91.0118 275.5 90.9921V91Z" fill="#C78200"/>
<path d="M295 138C292.792 137.94 291 136.84 291 135.539V13.4633C291 12.1627 292.792 11.0628 295 11.0025C297.208 10.9423 299 11.958 299 13.2586V135.74C299 137.045 297.208 138.056 295 137.996V138Z" fill="#C78200"/>
<path d="M314.5 120.991C312.568 120.955 311 119.864 311 118.557V30.4355C311 29.1279 312.568 28.033 314.5 28.0009C316.432 27.9648 318 29.0036 318 30.3192V118.681C318 119.993 316.432 121.031 314.5 120.999V120.991Z" fill="#C78200"/>
<path d="M334 102C331.792 101.984 330 100.896 330 99.57V49.43C330 48.1043 331.792 47.0163 334 47.0002C336.208 46.9841 338 48.0479 338 49.3776V99.6224C338 100.948 336.208 102.016 334 102Z" fill="#C78200"/>
<path d="M353.5 90.9959C351.568 90.9878 350 89.8987 350 88.5627V60.4332C350 59.0972 351.568 58.0041 353.5 58C355.432 57.9919 357 59.0729 357 60.413V88.587C357 89.9271 355.432 91.0081 353.5 91V90.9959Z" fill="#C78200"/>
<path d="M373 99C370.792 98.992 369 97.9218 369 96.6098V52.3902C369 51.0742 370.792 50.004 373 50C375.208 49.9921 377 51.0544 377 52.3704V96.6296C377 97.9456 375.208 99.0079 373 99Z" fill="#C78200"/>
<path d="M392.5 100C390.568 100 389 98.9283 389 97.6066V51.3934C389 50.0756 390.568 49.004 392.5 49C394.432 49 396 50.0677 396 51.3855V97.6105C396 98.9283 394.432 99.996 392.5 99.996V100Z" fill="#C78200"/>
<path d="M412 118C409.792 118 408 116.914 408 115.568V33.4319C408 32.0862 409.792 30.996 412 31C414.208 31 416 32.0984 416 33.444V115.556C416 116.902 414.208 118 412 118Z" fill="#C78200"/>
<path d="M431.5 149C429.568 149.02 428 147.949 428 146.612V2.38759C428 1.05102 429.568 -0.0198499 431.5 0.00027919C433.432 0.0204083 435 1.11946 435 2.452V146.548C435 147.885 433.432 148.984 431.5 149Z" fill="#C78200"/>
<path d="M451 96C448.792 96.0082 447 94.9114 447 93.5559V55.4442C447 54.0845 448.792 52.9878 451 53.0001C453.208 53.0083 455 54.1174 455 55.473C455 68.1577 455 80.8424 455 93.5271C455 94.8827 453.208 95.9917 451 96Z" fill="#C78200"/>
<path d="M470.5 95.9999C468.568 96.0118 467 94.9684 467 93.6642V55.3358C467 54.0356 468.568 52.9882 470.5 53.0001C472.432 53.012 474 54.0751 474 55.3754V93.6246C474 94.9249 472.432 95.988 470.5 95.9999Z" fill="#C78200"/>
<path d="M490 105.996C487.792 106.02 486 104.983 486 103.683V45.3134C486 44.0138 487.792 42.9766 490 43.0004C492.208 43.0242 494 44.0973 494 45.3929V103.608C494 104.903 492.208 105.976 490 106V105.996Z" fill="#C78200"/>
<path d="M509.5 111.996C507.568 112.033 506 110.988 506 109.667V39.3299C506 38.0089 507.568 36.9644 509.5 37.0009C511.432 37.0375 513 38.1309 513 39.4478V109.553C513 110.87 511.432 111.963 509.5 112V111.996Z" fill="#C78200"/>
<path d="M529 96.9996C526.786 97.024 525 95.9831 525 94.6738V54.3262C525 53.0169 526.797 51.976 529 52.0004C531.214 52.0248 533 53.1023 533 54.4035V94.5925C533 95.8936 531.203 96.9711 529 96.9955V96.9996Z" fill="#C78200"/>
<path d="M548.5 120.997C546.563 121.058 545 120.057 545 118.769V30.2309C545 28.9425 546.563 27.9419 548.5 28.0026C550.437 28.0634 552 29.1532 552 30.4334V118.563C552 119.847 550.437 120.937 548.5 120.993V120.997Z" fill="#C78200"/>
<path d="M567.505 119.997C565.574 120.065 564 119.093 564 117.831V31.169C564 29.9074 565.565 28.9351 567.505 29.0034C569.435 29.0717 571 30.1445 571 31.3981V117.602C571 118.856 569.435 119.928 567.505 119.997Z" fill="#C78200"/>
<path d="M587 94.999C584.791 95.0352 583 94.0541 583 92.8076V56.1924C583 54.9459 584.791 53.9648 587 54.001C589.209 54.0372 591 55.0665 591 56.301V92.699C591 93.9335 589.209 94.9669 587 94.999Z" fill="#C78200"/>
<path d="M606.505 91.9992C604.569 92.0312 603 91.0708 603 89.8543V59.1457C603 57.9292 604.569 56.9688 606.505 57.0008C608.44 57.0328 610 58.0412 610 59.2497V89.7503C610 90.9588 608.431 91.9672 606.505 91.9992Z" fill="#C78200"/>
<path d="M626 95.996C623.796 96.0403 622 95.1007 622 93.8989V55.0989C622 53.893 623.796 52.9534 626 53.0018C628.204 53.0461 630 54.0544 630 55.2481V93.7537C630 94.9474 628.204 95.9516 626 96V95.996Z" fill="#C78200"/>
<path d="M645.5 93.9985C643.566 94.0431 642 93.1186 642 91.9347V57.0653C642 55.8814 643.566 54.9569 645.5 55.0015C647.434 55.0461 649 56.0355 649 57.2113C649 68.7384 649 80.2616 649 91.7887C649 92.9605 647.434 93.9539 645.5 93.9985Z" fill="#C78200"/>
<path d="M665 90.9984C662.79 91.0427 661 90.1449 661 88.9935V60.0065C661 58.8551 662.79 57.9573 665 58.0016C667.21 58.0459 669 59.004 669 60.1394V88.8566C669 89.9919 667.21 90.9501 665 90.9944V90.9984Z" fill="#C78200"/>
<path d="M684.5 88.9987C682.57 89.0389 681 88.1657 681 87.047V61.9532C681 60.8346 682.57 59.9573 684.5 60.0016C686.43 60.0418 688 60.9754 688 62.082V86.9182C688 88.0249 686.43 88.9544 684.5 88.9987Z" fill="#C78200"/>
<path d="M703.5 126.977C701.565 127.142 700 126.397 700 125.311C700 91.4371 700 57.5629 700 23.6887C700 22.6073 701.565 21.8584 703.5 22.0226C705.435 22.1868 707 23.188 707 24.2574V124.739C707 125.808 705.435 126.809 703.5 126.973V126.977Z" fill="#C78200"/>
<path d="M723 111.986C720.793 112.116 719 111.356 719 110.291V38.709C719 37.6444 720.793 36.8844 723 37.0145C725.207 37.1445 727 38.0995 727 39.152V109.848C727 110.896 725.207 111.855 723 111.986Z" fill="#C78200"/>
<path d="M742.5 95.4942C740.564 95.5748 739 94.8129 739 93.789V55.2105C739 54.1906 740.574 53.4287 742.5 53.5053C744.436 53.5859 746 54.4647 746 55.4685V93.5269C746 94.5307 744.436 95.4095 742.5 95.4901V95.4942Z" fill="#C78200"/>
<path d="M761.505 86.4974C759.576 86.5498 758.01 85.7924 758 84.8094V64.1902C758 63.2072 759.566 62.4539 761.505 62.5022C763.434 62.5546 765 63.3764 765 64.3433V84.6563C765 85.6192 763.434 86.4451 761.505 86.4974Z" fill="#C78200"/>
<path d="M781.006 91.9937C778.795 92.0748 777 91.3692 777 90.4243V58.5757C777 57.6268 778.795 56.9253 781.006 57.0064C783.216 57.0875 785 57.9066 785 58.8352V90.1608C785 91.0894 783.205 91.9126 781.006 91.9896V91.9937Z" fill="#C78200"/>
<path d="M800.5 91.9919C798.567 92.082 797 91.4104 797 90.4972V58.5028C797 57.5896 798.567 56.918 800.5 57.0081C802.433 57.0982 804 57.8967 804 58.7894V90.2065C804 91.1033 802.433 91.9018 800.5 91.9878V91.9919Z" fill="#C78200"/>
<path d="M819.5 102.979C817.567 102.835 816 102.009 816 101.139V47.8609C816 46.9869 817.567 46.1647 819.5 46.0211C821.433 45.8774 823 46.484 823 47.374V101.626C823 102.516 821.433 103.123 819.5 102.979Z" fill="#C78200"/>
<path d="M838.995 126.946C836.784 126.706 835 125.756 835 124.822V24.178C835 23.2481 836.795 22.2938 838.995 22.0542C841.205 21.8147 843 22.3913 843 23.3415V125.659C843 126.609 841.205 127.185 838.995 126.946Z" fill="#C78200"/>
<path d="M858.5 90C856.568 89.9352 855 89.0923 855 88.1238V60.8801C855 59.9116 856.568 59.0687 858.5 59.0039C860.432 58.9391 862.01 59.6887 862 60.6735V88.3264C862 89.3152 860.432 90.0608 858.5 89.9959V90Z" fill="#C78200"/>
<path d="M877.5 90.9923C875.564 90.9288 874 90.0746 874 89.0853V59.9108C874 58.9215 875.564 58.0673 877.5 58.0037C879.436 57.9401 881 58.7069 881 59.7121V89.2879C881 90.2931 879.426 91.0599 877.5 90.9963V90.9923Z" fill="#C78200"/>
<path d="M897 99.9891C894.793 99.9002 893 98.9826 893 97.9396V51.0563C893 50.0134 894.793 49.0917 897 49.0068C899.207 48.9179 901 49.7062 901 50.7653V98.2347C901 99.2938 899.207 100.082 897 99.9932V99.9891Z" fill="#C78200"/>
<path d="M916.5 104.992C914.565 104.896 913 103.955 913 102.889V46.1107C913 45.0453 914.565 44.1036 916.5 44.0078C918.435 43.912 920 44.7101 920 45.7875V103.213C920 104.29 918.435 105.088 916.5 104.992Z" fill="#C78200"/>
<path d="M935.5 94C933.57 93.9427 932 92.9855 932 91.8605V57.1421C932 56.0172 933.57 55.0599 935.5 55.0026C937.43 54.9454 939 55.8249 939 56.9621V92.0364C939 93.1737 937.43 94.0532 935.5 93.9959V94Z" fill="#C78200"/>
<path d="M955 115.995C952.79 115.886 951 114.871 951 113.732V35.272C951 34.1326 952.79 33.1185 955 33.0094C957.21 32.9003 959 33.7528 959 34.9043V114.096C959 115.251 957.21 116.1 955 115.991V115.995Z" fill="#C78200"/>
<path d="M974.5 116.992C972.566 116.891 971 115.861 971 114.693V34.3065C971 33.139 972.566 32.1089 974.5 32.0079C976.434 31.9069 978 32.7876 978 33.9672V115.033C978 116.212 976.434 117.093 974.5 116.992Z" fill="#C78200"/>
<path d="M994 93.9988C991.796 93.9591 990 92.9711 990 91.7965V57.2035C990 56.0289 991.785 55.0409 994 55.0012C996.204 54.9616 998 55.8861 998 57.0725V91.9275C998 93.1139 996.204 94.0385 994 93.9988Z" fill="#C78200"/>
<path d="M1013.5 91.9992C1011.56 91.9672 1009.99 90.9588 1010 89.7503V59.2497C1010 58.0412 1011.57 57.0328 1013.5 57.0008C1015.43 56.9688 1017 57.9292 1017 59.1457V89.8543C1017 91.0708 1015.43 92.0312 1013.5 91.9992Z" fill="#C78200"/>
<path d="M1033 96.999C1030.79 96.9624 1029 95.917 1029 94.6641V54.3359C1029 53.0871 1030.79 52.0417 1033 52.001C1035.21 51.9644 1037 52.9528 1037 54.2139V94.7861C1037 96.0431 1035.21 97.0356 1033 96.999Z" fill="#C78200"/>
<path d="M1052.5 94.9953C1050.57 94.9636 1049.01 93.9381 1049 92.7026V56.2932C1049 55.0578 1050.56 54.0283 1052.5 54.0006C1054.44 53.9729 1056 54.9549 1056 56.1982V92.8016C1056 94.045 1054.44 95.0309 1052.5 94.9993V94.9953Z" fill="#C78200"/>
<path d="M1072 92.9955C1069.79 92.9713 1068 91.913 1068 90.6366V58.3593C1068 57.0789 1069.79 56.0247 1072 56.0004C1074.21 55.9762 1076 56.9981 1076 58.2866V90.7134C1076 91.9979 1074.21 93.0238 1072 92.9996V92.9955Z" fill="#C78200"/>
<path d="M1092 99C1089.79 98.992 1088 97.9218 1088 96.6098V52.3902C1088 51.0742 1089.79 50.004 1092 50C1094.21 49.9921 1096 51.0544 1096 52.3704V96.6296C1096 97.9456 1094.21 99.0079 1092 99Z" fill="#C78200"/>
<path d="M1111.5 100C1109.57 100 1108 98.9283 1108 97.6066V51.3934C1108 50.0756 1109.57 49.004 1111.5 49C1113.43 49 1115 50.0677 1115 51.3855V97.6105C1115 98.9283 1113.43 99.996 1111.5 99.996V100Z" fill="#C78200"/>
<path d="M1131 118C1128.79 118 1127 116.914 1127 115.568V33.4319C1127 32.0862 1128.79 30.996 1131 31C1133.21 31 1135 32.0984 1135 33.444V115.556C1135 116.902 1133.21 118 1131 118Z" fill="#C78200"/>
<path d="M1151 96C1148.79 96.0082 1147 94.9114 1147 93.5559V55.4442C1147 54.0845 1148.79 52.9878 1151 53.0001C1153.21 53.0083 1155 54.1174 1155 55.473C1155 68.1577 1155 80.8424 1155 93.5271C1155 94.8827 1153.21 95.9917 1151 96Z" fill="#C78200"/>
<path d="M1170.5 95.9999C1168.57 96.0118 1167 94.9684 1167 93.6642V55.3358C1167 54.0356 1168.57 52.9882 1170.5 53.0001C1172.43 53.012 1174 54.0751 1174 55.3754V93.6246C1174 94.9249 1172.43 95.988 1170.5 95.9999Z" fill="#C78200"/>
<path d="M1190 105.996C1187.79 106.02 1186 104.983 1186 103.683V45.3134C1186 44.0138 1187.79 42.9766 1190 43.0004C1192.21 43.0242 1194 44.0973 1194 45.3929V103.608C1194 104.903 1192.21 105.976 1190 106V105.996Z" fill="#C78200"/>
<path d="M1209.5 111.996C1207.57 112.033 1206 110.988 1206 109.667V39.3299C1206 38.0089 1207.57 36.9644 1209.5 37.0009C1211.43 37.0375 1213 38.1309 1213 39.4478V109.553C1213 110.87 1211.43 111.963 1209.5 112V111.996Z" fill="#C78200"/>
<path d="M1229 96.9996C1226.79 97.024 1225 95.9831 1225 94.6738V54.3262C1225 53.0169 1226.8 51.976 1229 52.0004C1231.21 52.0248 1233 53.1023 1233 54.4035V94.5925C1233 95.8936 1231.2 96.9711 1229 96.9955V96.9996Z" fill="#C78200"/>
<path d="M1249 94.999C1246.79 95.0352 1245 94.0541 1245 92.8076V56.1924C1245 54.9459 1246.79 53.9648 1249 54.001C1251.21 54.0372 1253 55.0665 1253 56.301V92.699C1253 93.9335 1251.21 94.9669 1249 94.999Z" fill="#C78200"/>
<path d="M1268.5 91.9992C1266.57 92.0312 1265 91.0708 1265 89.8543V59.1457C1265 57.9292 1266.57 56.9688 1268.5 57.0008C1270.44 57.0328 1272 58.0412 1272 59.2497V89.7503C1272 90.9588 1270.43 91.9672 1268.5 91.9992Z" fill="#C78200"/>
<path d="M1288 95.996C1285.8 96.0403 1284 95.1007 1284 93.8989V55.0989C1284 53.893 1285.8 52.9534 1288 53.0018C1290.2 53.0461 1292 54.0544 1292 55.2481V93.7537C1292 94.9474 1290.2 95.9516 1288 96V95.996Z" fill="#C78200"/>
<path d="M1307.5 93.9985C1305.57 94.0431 1304 93.1186 1304 91.9347V57.0653C1304 55.8814 1305.57 54.9569 1307.5 55.0015C1309.43 55.0461 1311 56.0355 1311 57.2113C1311 68.7384 1311 80.2616 1311 91.7887C1311 92.9605 1309.43 93.9539 1307.5 93.9985Z" fill="#C78200"/>
<path d="M1327 90.9984C1324.79 91.0427 1323 90.1449 1323 88.9935V60.0065C1323 58.8551 1324.79 57.9573 1327 58.0016C1329.21 58.0459 1331 59.004 1331 60.1394V88.8566C1331 89.9919 1329.21 90.9501 1327 90.9944V90.9984Z" fill="#C78200"/>
<path d="M1346.5 88.9987C1344.57 89.0389 1343 88.1657 1343 87.047V61.9532C1343 60.8346 1344.57 59.9573 1346.5 60.0016C1348.43 60.0418 1350 60.9754 1350 62.082V86.9182C1350 88.0249 1348.43 88.9544 1346.5 88.9987Z" fill="#C78200"/>
<path d="M1366 111.986C1363.79 112.116 1362 111.356 1362 110.291V38.709C1362 37.6444 1363.79 36.8844 1366 37.0145C1368.21 37.1445 1370 38.0995 1370 39.152V109.848C1370 110.896 1368.21 111.855 1366 111.986Z" fill="#C78200"/>
<path d="M1385.5 95.4942C1383.56 95.5748 1382 94.8129 1382 93.789V55.2105C1382 54.1906 1383.57 53.4287 1385.5 53.5053C1387.44 53.5859 1389 54.4647 1389 55.4685V93.5269C1389 94.5307 1387.44 95.4095 1385.5 95.4901V95.4942Z" fill="#C78200"/>
<path d="M1404.5 86.4974C1402.58 86.5498 1401.01 85.7924 1401 84.8094V64.1902C1401 63.2072 1402.57 62.4539 1404.5 62.5022C1406.43 62.5546 1408 63.3764 1408 64.3433V84.6563C1408 85.6192 1406.43 86.4451 1404.5 86.4974Z" fill="#C78200"/>
<path d="M1424.01 91.9937C1421.79 92.0748 1420 91.3692 1420 90.4243V58.5757C1420 57.6268 1421.79 56.9253 1424.01 57.0064C1426.22 57.0875 1428 57.9066 1428 58.8352V90.1608C1428 91.0894 1426.21 91.9126 1424.01 91.9896V91.9937Z" fill="#C78200"/>
<path d="M1443.5 91.9919C1441.57 92.082 1440 91.4104 1440 90.4972V58.5028C1440 57.5896 1441.57 56.918 1443.5 57.0081C1445.43 57.0982 1447 57.8967 1447 58.7894V90.2065C1447 91.1033 1445.43 91.9018 1443.5 91.9878V91.9919Z" fill="#C78200"/>
</svg>
